<svg width="24" height="25" viewBox="0 0 24 25" fill="none" xmlns="http://www.w3.org/2000/svg">
<path d="M12 7.24997V8.74997C10.645 8.74997 9.303 8.80597 7.976 8.91597C6.845 9.00997 6 9.97297 6 11.108V13.621M12 8.75097C13.355 8.75097 14.697 8.80597 16.024 8.91597C17.155 9.00997 18 9.97297 18 11.108V13.621M15 8.75097V7.25097M9 8.75097V7.25097M21 17.001L19.5 17.751C19.0343 17.9838 18.5207 18.1051 18 18.1051C17.4793 18.1051 16.9657 17.9838 16.5 17.751C16.0343 17.5181 15.5207 17.3969 15 17.3969C14.4793 17.3969 13.9657 17.5181 13.5 17.751C13.0343 17.9838 12.5207 18.1051 12 18.1051C11.4793 18.1051 10.9657 17.9838 10.5 17.751C10.0343 17.5181 9.52071 17.3969 9 17.3969C8.47929 17.3969 7.96573 17.5181 7.5 17.751C7.03427 17.9838 6.52071 18.1051 6 18.1051C5.47929 18.1051 4.96573 17.9838 4.5 17.751L3 17M18 13.62C16.0096 13.3726 14.0057 13.2491 12 13.25C9.968 13.25 7.966 13.375 6 13.62C5.61169 13.6689 5.22399 13.7225 4.837 13.781C3.768 13.941 3 14.875 3 15.955V21.125C3.00027 21.4232 3.11891 21.7091 3.32986 21.9198C3.54081 22.1306 3.8268 22.249 4.125 22.249H19.875C20.496 22.249 21 21.745 21 21.125V15.955C21 14.874 20.233 13.94 19.163 13.78C18.777 13.722 18.39 13.669 18 13.62ZM12.265 3.60997C12.3175 3.6624 12.3533 3.72921 12.3678 3.80197C12.3823 3.87473 12.3749 3.95015 12.3465 4.0187C12.3181 4.08725 12.2701 4.14584 12.2084 4.18707C12.1467 4.2283 12.0742 4.2503 12 4.2503C11.9258 4.2503 11.8533 4.2283 11.7916 4.18707C11.7299 4.14584 11.6819 4.08725 11.6535 4.0187C11.6251 3.95015 11.6177 3.87473 11.6322 3.80197C11.6467 3.72921 11.6825 3.6624 11.735 3.60997L12 3.34497L12.265 3.60997ZM9.265 3.60997C9.31749 3.6624 9.35325 3.72921 9.36776 3.80197C9.38227 3.87473 9.37487 3.95015 9.3465 4.0187C9.31813 4.08725 9.27007 4.14584 9.20839 4.18707C9.14671 4.2283 9.07419 4.2503 9 4.2503C8.92581 4.2503 8.85329 4.2283 8.79161 4.18707C8.72993 4.14584 8.68187 4.08725 8.6535 4.0187C8.62513 3.95015 8.61773 3.87473 8.63224 3.80197C8.64675 3.72921 8.68251 3.6624 8.735 3.60997L9 3.34497L9.265 3.60997ZM15.265 3.60997C15.3175 3.6624 15.3533 3.72921 15.3678 3.80197C15.3823 3.87473 15.3749 3.95015 15.3465 4.0187C15.3181 4.08725 15.2701 4.14584 15.2084 4.18707C15.1467 4.2283 15.0742 4.2503 15 4.2503C14.9258 4.2503 14.8533 4.2283 14.7916 4.18707C14.7299 4.14584 14.6819 4.08725 14.6535 4.0187C14.6251 3.95015 14.6177 3.87473 14.6322 3.80197C14.6467 3.72921 14.6825 3.6624 14.735 3.60997L15 3.34497L15.265 3.60997Z" stroke="#F5F5F5" stroke-width="1.5" stroke-linecap="round" stroke-linejoin="round"/>
</svg>
