<svg width="24" height="25" viewBox="0 0 24 25" fill="none" xmlns="http://www.w3.org/2000/svg">
<path d="M16.5 12.5001C16.5 13.6935 16.0259 14.8381 15.182 15.682C14.3381 16.526 13.1935 17.0001 12 17.0001C10.8065 17.0001 9.66194 16.526 8.81802 15.682C7.97411 14.8381 7.5 13.6935 7.5 12.5001C7.5 11.3066 7.97411 10.162 8.81802 9.31808C9.66194 8.47416 10.8065 8.00006 12 8.00006C13.1935 8.00006 14.3381 8.47416 15.182 9.31808C16.0259 10.162 16.5 11.3066 16.5 12.5001ZM16.5 12.5001C16.5 14.1571 17.507 15.5001 18.75 15.5001C19.993 15.5001 21 14.1571 21 12.5001C21 10.4179 20.278 8.40009 18.957 6.79054C17.6361 5.18099 15.7979 4.07925 13.7557 3.67305C11.7136 3.26685 9.5937 3.58132 7.75737 4.56288C5.92104 5.54443 4.48187 7.13234 3.68506 9.05605C2.88825 10.9798 2.78311 13.1202 3.38756 15.1128C3.992 17.1053 5.26863 18.8266 6.99992 19.9834C8.73121 21.1402 10.81 21.6609 12.8822 21.4568C14.9544 21.2527 16.8917 20.3364 18.364 18.8641M16.5 12.5001V8.75006" stroke="#F5F5F5" stroke-width="1.5" stroke-linecap="round"/>
</svg>
