<svg width="24" height="25" viewBox="0 0 24 25" fill="none" xmlns="http://www.w3.org/2000/svg">
<path d="M7.86401 4.74304C8.9944 3.99576 10.3061 3.5687 11.6598 3.50723C13.0135 3.44577 14.3585 3.7522 15.552 4.39396C16.7455 5.03572 17.7428 5.98883 18.4379 7.15201C19.1331 8.31518 19.5001 9.64497 19.5 11C19.5 13.92 18.944 16.709 17.932 19.268M5.74201 6.86404C4.92956 8.09023 4.49748 9.52912 4.50001 11C4.50236 12.4131 4.10357 13.7977 3.35001 14.993M5.33901 18.552C7.21603 16.4851 8.25409 13.7921 8.25001 11C8.25001 10.0055 8.64509 9.05165 9.34836 8.34839C10.0516 7.64512 11.0054 7.25004 12 7.25004C12.9946 7.25004 13.9484 7.64512 14.6517 8.34839C15.3549 9.05165 15.75 10.0055 15.75 11C15.75 11.527 15.729 12.049 15.686 12.565M12 11C12.0056 14.5761 10.7282 18.0356 8.40001 20.75M15.033 16.154C14.4915 18.0508 13.6528 19.8498 12.548 21.484" stroke="#F5F5F5" stroke-width="1.5" stroke-linecap="round" stroke-linejoin="round"/>
</svg>
