<svg width="24" height="25" viewBox="0 0 24 25" fill="none" xmlns="http://www.w3.org/2000/svg">
<path d="M15.75 6.5C15.75 7.49456 15.3549 8.44839 14.6517 9.15165C13.9484 9.85491 12.9946 10.25 12 10.25C11.0054 10.25 10.0516 9.85491 9.34836 9.15165C8.6451 8.44839 8.25001 7.49456 8.25001 6.5C8.25001 5.50544 8.6451 4.55161 9.34836 3.84835C10.0516 3.14509 11.0054 2.75 12 2.75C12.9946 2.75 13.9484 3.14509 14.6517 3.84835C15.3549 4.55161 15.75 5.50544 15.75 6.5ZM4.50101 20.618C4.53314 18.6504 5.33735 16.7742 6.74018 15.394C8.14302 14.0139 10.0321 13.2405 12 13.2405C13.9679 13.2405 15.857 14.0139 17.2598 15.394C18.6627 16.7742 19.4669 18.6504 19.499 20.618C17.1464 21.6968 14.5882 22.2535 12 22.25C9.32401 22.25 6.78401 21.666 4.50101 20.618Z" stroke="#F5F5F5" stroke-width="1.5" stroke-linecap="round" stroke-linejoin="round"/>
</svg>
