<svg width="16" height="17" viewBox="0 0 16 17" fill="none" xmlns="http://www.w3.org/2000/svg">
<path fill-rule="evenodd" clip-rule="evenodd" d="M7.29297 0.793C7.4805 0.605529 7.73481 0.500214 7.99997 0.500214C8.26513 0.500214 8.51944 0.605529 8.70697 0.793L15.707 7.793C15.8468 7.93285 15.942 8.11102 15.9806 8.30497C16.0191 8.49892 15.9993 8.69995 15.9236 8.88265C15.848 9.06535 15.7198 9.22152 15.5554 9.3314C15.391 9.44129 15.1977 9.49996 15 9.5H14V15.5C14 15.7652 13.8946 16.0196 13.7071 16.2071C13.5195 16.3946 13.2652 16.5 13 16.5H11C10.7348 16.5 10.4804 16.3946 10.2929 16.2071C10.1053 16.0196 9.99997 15.7652 9.99997 15.5V12.5C9.99997 12.2348 9.89461 11.9804 9.70708 11.7929C9.51954 11.6054 9.26519 11.5 8.99997 11.5H6.99997C6.73475 11.5 6.4804 11.6054 6.29286 11.7929C6.10533 11.9804 5.99997 12.2348 5.99997 12.5V15.5C5.99997 15.7652 5.89461 16.0196 5.70708 16.2071C5.51954 16.3946 5.26519 16.5 4.99997 16.5H2.99997C2.73475 16.5 2.4804 16.3946 2.29286 16.2071C2.10533 16.0196 1.99997 15.7652 1.99997 15.5V9.5H0.99997C0.80222 9.49996 0.608921 9.44129 0.444511 9.3314C0.280102 9.22152 0.151962 9.06535 0.0762921 8.88265C0.000622056 8.69995 -0.019181 8.49892 0.0193866 8.30497C0.0579541 8.11102 0.153161 7.93285 0.29297 7.793L7.29297 0.793Z" fill="#F5F5F5"/>
</svg>
